<svg xmlns="http://www.w3.org/2000/svg" viewBox="0 0 48 48"><title>33-Research</title><g id="_33-Research" data-name="33-Research"><path d="M29,48H17a1,1,0,0,1-1-1V39c0-1.841-.857-1.989-1.029-2H9a3.888,3.888,0,0,1-4-4V29.749A3.581,3.581,0,0,0,3,29a2.916,2.916,0,0,1-3-3,1,1,0,0,1,.125-.483L5,16.681V15A15.017,15.017,0,0,1,20,0h3V2H20A13.015,13.015,0,0,0,7,15v1.938a1,1,0,0,1-.125.484l-4.854,8.8A.878.878,0,0,0,3,27a5.773,5.773,0,0,1,3.663,1.524A1,1,0,0,1,7,29.272V33a1.882,1.882,0,0,0,2,2h6c1.038,0,3,.836,3,4v7H29Z"/><rect x="33" y="27" width="2" height="6"/><path d="M34,28A14,14,0,1,1,48,14,14.015,14.015,0,0,1,34,28ZM34,2A12,12,0,1,0,46,14,12.013,12.013,0,0,0,34,2Z"/><path d="M34,48a3,3,0,0,1-3-3V35a3,3,0,0,1,6,0V45A3,3,0,0,1,34,48Zm0-14a1,1,0,0,0-1,1V45a1,1,0,0,0,2,0V35A1,1,0,0,0,34,34Z"/><rect x="33" y="13" width="2" height="2"/><rect x="38" y="13" width="2" height="2"/><rect x="28" y="13" width="2" height="2"/></g></svg>